<?xml version="1.0" encoding="UTF-8"?>
<!DOCTYPE svg PUBLIC "-//W3C//DTD SVG 1.1//EN" "http://www.w3.org/Graphics/SVG/1.1/DTD/svg11.dtd">
<!-- Creator: CorelDRAW -->
<svg xmlns="http://www.w3.org/2000/svg" xml:space="preserve" width="2048px" height="2048px" style="shape-rendering:geometricPrecision; text-rendering:geometricPrecision; image-rendering:optimizeQuality; fill-rule:evenodd; clip-rule:evenodd"
viewBox="0 0 2048 2048"
 xmlns:xlink="http://www.w3.org/1999/xlink">
 <defs>
  <style type="text/css">
   <![CDATA[
    .fil2 {fill:none}
    .fil11 {fill:#263238}
    .fil10 {fill:#37474F}
    .fil13 {fill:#616161}
    .fil14 {fill:#6D9D3B}
    .fil7 {fill:#7CB342}
    .fil1 {fill:#9655A2}
    .fil6 {fill:#9CCC65}
    .fil12 {fill:#9E9E9E}
    .fil0 {fill:#BA68C8}
    .fil9 {fill:#DD2C00}
    .fil8 {fill:#3B4C55;fill-rule:nonzero}
    .fil5 {fill:#6D9E3C;fill-rule:nonzero}
    .fil3 {fill:#75AB3E;fill-rule:nonzero}
    .fil4 {fill:#9CCC65;fill-rule:nonzero}
   ]]>
  </style>
   <clipPath id="id0">
    <path d="M1024 0c565.538,0 1024,458.462 1024,1024 0,565.538 -458.462,1024 -1024,1024 -565.538,0 -1024,-458.462 -1024,-1024 0,-565.538 458.462,-1024 1024,-1024z"/>
   </clipPath>
 </defs>
 <g id="Layer_x0020_1">
  <metadata id="CorelCorpID_0Corel-Layer"/>
  <path class="fil0" d="M1024 0c565.538,0 1024,458.462 1024,1024 0,565.538 -458.462,1024 -1024,1024 -565.538,0 -1024,-458.462 -1024,-1024 0,-565.538 458.462,-1024 1024,-1024z"/>
  <g style="clip-path:url(#id0)">
   <g id="_385688368">
    <g>
     <polygon id="_2380709681" class="fil1" points="1137.25,469.887 2273.13,1605.77 2274.1,1606.94 2275.05,1608.21 2275.96,1609.57 2276.83,1611.02 2277.68,1612.55 2278.48,1614.17 2279.25,1615.86 2279.98,1617.63 2280.67,1619.48 2281.32,1621.39 2281.93,1623.37 2282.49,1625.41 2283,1627.52 2283.46,1629.68 2283.88,1631.89 2284.25,1634.16 2284.56,1636.47 2284.82,1638.83 2285.02,1641.24 2285.17,1643.68 2285.26,1646.16 2285.29,1648.67 1149.41,512.783 1149.38,510.273 1149.29,507.795 1149.14,505.354 1148.94,502.952 1148.68,500.592 1148.36,498.277 1148,496.01 1147.58,493.794 1147.12,491.633 1146.6,489.53 1146.04,487.487 1145.44,485.508 1144.79,483.594 1144.1,481.752 1143.37,479.981 1142.6,478.288 1141.8,476.672 1140.95,475.139 1140.08,473.691 1139.16,472.33 1138.22,471.062 "/>
     <polygon id="_238070704" class="fil1" points="1149.41,512.783 2285.29,1648.67 2285.26,1651.18 2285.17,1653.65 2285.02,1656.09 2284.82,1658.5 2284.56,1660.86 2284.25,1663.17 2283.88,1665.44 2283.46,1667.65 2283,1669.81 2282.49,1671.92 2281.93,1673.96 2281.32,1675.94 2280.67,1677.85 2279.98,1679.7 2279.25,1681.47 2278.48,1683.16 2277.68,1684.78 2276.83,1686.31 2275.96,1687.76 2275.05,1689.12 2274.1,1690.39 2273.13,1691.56 2272.13,1692.64 2271.1,1693.61 2270.04,1694.49 2268.96,1695.26 2267.86,1695.91 2266.74,1696.46 2265.59,1696.89 2264.43,1697.2 2263.25,1697.38 2262.05,1697.45 1126.17,561.566 1127.37,561.502 1128.55,561.315 1129.71,561.004 1130.86,560.575 1131.98,560.031 1133.08,559.373 1134.16,558.606 1135.22,557.732 1136.25,556.756 1137.25,555.678 1138.22,554.503 1139.16,553.235 1140.08,551.874 1140.95,550.426 1141.8,548.893 1142.6,547.277 1143.37,545.583 1144.1,543.813 1144.79,541.97 1145.44,540.057 1146.04,538.079 1146.6,536.035 1147.12,533.932 1147.58,531.772 1148,529.556 1148.36,527.289 1148.68,524.974 1148.94,522.615 1149.14,520.212 1149.29,517.771 1149.38,515.293 "/>
     <polygon id="_238071688" class="fil1" points="1126.17,561.566 2262.05,1697.45 2211.42,1697.45 1075.54,561.566 "/>
     <polygon id="_238071136" class="fil1" points="1075.54,561.566 2211.42,1697.45 2211.42,1713.43 1075.54,577.552 "/>
     <polygon id="_238071352" class="fil1" points="1393.47,592.713 2529.35,1728.6 2530.56,1730.13 2531.69,1731.73 2532.75,1733.38 2533.73,1735.08 2534.63,1736.84 2535.45,1738.64 2536.17,1740.49 2536.81,1742.38 2537.36,1744.31 2537.82,1746.28 2538.18,1748.29 2538.43,1750.33 2538.59,1752.39 2538.64,1754.49 2538.59,1756.58 2538.43,1758.65 2538.18,1760.69 2537.82,1762.69 2537.36,1764.66 2536.81,1766.59 2536.17,1768.48 2535.45,1770.33 2534.63,1772.13 2533.73,1773.89 2532.75,1775.59 2531.69,1777.25 2530.56,1778.84 2529.35,1780.38 2528.07,1781.86 2526.72,1783.27 2525.31,1784.62 2523.83,1785.9 2522.29,1787.1 2520.7,1788.24 2519.05,1789.3 2517.34,1790.28 2515.59,1791.18 2513.78,1791.99 2511.94,1792.72 2510.04,1793.36 2508.11,1793.91 2506.14,1794.37 2504.14,1794.72 2502.1,1794.98 2500.03,1795.14 2497.94,1795.19 2497.78,1795.19 2497.62,1795.19 2497.46,1795.19 2497.3,1795.19 2497.13,1795.18 2496.97,1795.18 2496.81,1795.18 2496.65,1795.17 1360.77,659.289 1360.93,659.294 1361.09,659.298 1361.25,659.301 1361.41,659.305 1361.58,659.307 1361.74,659.308 1361.9,659.31 1362.06,659.31 1364.15,659.256 1366.22,659.099 1368.26,658.841 1370.26,658.483 1372.23,658.028 1374.16,657.48 1376.05,656.84 1377.9,656.111 1379.71,655.296 1381.46,654.396 1383.17,653.417 1384.82,652.358 1386.41,651.223 1387.95,650.014 1389.43,648.735 1390.84,647.388 1392.19,645.974 1393.47,644.497 1394.68,642.96 1395.81,641.363 1396.87,639.712 1397.85,638.007 1398.75,636.252 1399.56,634.449 1400.29,632.6 1400.93,630.709 1401.48,628.778 1401.94,626.808 1402.29,624.804 1402.55,622.767 1402.71,620.699 1402.76,618.605 1402.71,616.51 1402.55,614.443 1402.29,612.406 1401.94,610.401 1401.48,608.432 1400.93,606.5 1400.29,604.609 1399.56,602.761 1398.75,600.957 1397.85,599.202 1396.87,597.498 1395.81,595.847 1394.68,594.251 "/>
     <polygon id="_238071112" class="fil1" points="1360.77,659.289 2496.65,1795.17 2478.06,1823.8 1342.18,687.917 "/>
     <polygon id="_238071712" class="fil1" points="1405.49,749.304 2541.37,1885.19 2549.19,1894.44 2556.79,1903.87 2564.17,1913.49 2571.32,1923.3 2578.24,1933.28 2584.92,1943.43 2591.36,1953.75 2597.56,1964.23 2603.51,1974.87 2609.21,1985.67 2614.65,1996.63 2619.84,2007.73 2624.76,2018.98 2629.41,2030.36 2633.79,2041.89 2637.89,2053.54 2641.72,2065.33 2645.27,2077.24 2648.52,2089.27 2651.48,2101.42 2654.15,2113.68 2656.52,2126.05 2658.59,2138.52 2660.35,2151.1 2661.8,2163.77 2662.93,2176.54 2663.75,2189.4 2664.24,2202.34 2664.4,2215.36 1528.52,1079.48 1528.36,1066.45 1527.87,1053.51 1527.05,1040.66 1525.92,1027.89 1524.47,1015.22 1522.71,1002.64 1520.64,990.167 1518.27,977.798 1515.6,965.537 1512.64,953.389 1509.38,941.358 1505.84,929.448 1502.01,917.662 1497.91,906.005 1493.53,894.481 1488.87,883.094 1483.95,871.848 1478.77,860.746 1473.33,849.792 1467.63,838.992 1461.68,828.348 1455.48,817.863 1449.04,807.544 1442.36,797.394 1435.44,787.416 1428.29,777.612 1420.91,767.991 1413.31,758.553 "/>
     <polygon id="_238071016" class="fil1" points="687.227,659.288 1823.11,1795.17 1822.94,1795.18 1822.78,1795.18 1822.61,1795.18 1822.44,1795.19 1822.28,1795.19 1822.11,1795.19 1821.95,1795.19 1821.78,1795.19 1819.68,1795.14 1817.62,1794.98 1815.58,1794.72 1813.58,1794.37 1811.61,1793.91 1809.67,1793.36 1807.78,1792.72 1805.94,1791.99 1804.13,1791.18 1802.38,1790.28 1800.67,1789.3 1799.02,1788.24 1797.42,1787.1 1795.89,1785.9 1794.41,1784.62 1793,1783.27 657.115,647.388 658.529,648.735 660.005,650.014 661.543,651.223 663.14,652.358 664.791,653.417 666.495,654.396 668.251,655.296 670.054,656.111 671.902,656.84 673.793,657.48 675.725,658.028 677.695,658.483 679.699,658.841 681.735,659.099 683.803,659.256 685.897,659.31 686.064,659.31 686.23,659.308 686.397,659.306 686.564,659.304 686.73,659.301 686.895,659.298 687.062,659.293 "/>
     <polygon id="_238071064" class="fil1" points="1380.75,1436.23 2516.63,2572.11 2507.97,2580.57 2499.11,2588.81 2490.05,2596.85 2480.8,2604.67 2471.37,2612.27 2461.74,2619.65 2451.94,2626.8 2441.96,2633.72 2431.81,2640.4 2421.49,2646.84 2411.01,2653.04 2400.36,2658.99 2389.56,2664.69 2378.61,2670.13 2367.51,2675.31 2356.26,2680.23 2344.88,2684.89 2333.35,2689.27 2321.69,2693.37 2309.91,2697.2 2298,2700.74 2285.97,2704 2273.82,2706.96 2261.56,2709.63 2249.19,2712 2236.71,2714.07 2224.14,2715.83 2211.46,2717.28 2198.7,2718.41 2185.84,2719.23 2172.9,2719.72 2159.88,2719.88 1024,1584 1037.02,1583.83 1049.96,1583.34 1062.82,1582.53 1075.58,1581.4 1088.26,1579.95 1100.83,1578.19 1113.31,1576.12 1125.68,1573.75 1137.94,1571.08 1150.09,1568.12 1162.12,1564.86 1174.03,1561.32 1185.81,1557.49 1197.47,1553.38 1208.99,1549 1220.38,1544.35 1231.63,1539.43 1242.73,1534.25 1253.68,1528.8 1264.48,1523.11 1275.13,1517.16 1285.61,1510.96 1295.93,1504.52 1306.08,1497.83 1316.06,1490.92 1325.86,1483.77 1335.48,1476.39 1344.92,1468.79 1354.17,1460.97 1363.23,1452.93 1372.09,1444.68 "/>
     <polygon id="_238071448" class="fil1" points="1024,1584 2159.88,2719.88 2146.86,2719.72 2133.92,2719.23 2121.06,2718.41 2108.3,2717.28 2095.62,2715.83 2083.05,2714.07 2070.57,2712 2058.2,2709.63 2045.94,2706.96 2033.79,2704 2021.76,2700.74 2009.85,2697.2 1998.07,2693.37 1986.41,2689.27 1974.89,2684.89 1963.5,2680.23 1952.25,2675.31 1941.15,2670.13 1930.2,2664.69 1919.4,2658.99 1908.75,2653.04 1898.27,2646.84 1887.95,2640.4 1877.8,2633.72 1867.82,2626.8 1858.02,2619.65 1848.4,2612.27 1838.96,2604.67 1829.71,2596.85 693.827,1460.97 703.077,1468.79 712.515,1476.39 722.136,1483.77 731.939,1490.92 741.917,1497.83 752.068,1504.52 762.387,1510.96 772.871,1517.15 783.516,1523.1 794.316,1528.8 805.269,1534.25 816.371,1539.43 827.618,1544.35 839.005,1549 850.529,1553.38 862.185,1557.49 873.972,1561.32 885.882,1564.86 897.913,1568.12 910.06,1571.08 922.321,1573.75 934.691,1576.12 947.166,1578.19 959.742,1579.95 972.415,1581.4 985.182,1582.53 998.037,1583.34 1010.98,1583.83 "/>
     <polygon id="_238071520" class="fil1" points="714.681,589.822 1850.56,1725.7 1851.91,1727.12 1853.19,1728.6 1854.4,1730.13 1855.53,1731.73 1856.59,1733.38 1857.57,1735.08 1858.47,1736.84 1859.29,1738.64 1860.01,1740.49 1860.65,1742.38 1861.2,1744.31 1861.66,1746.28 1862.02,1748.29 1862.27,1750.33 1862.43,1752.39 1862.48,1754.49 1862.48,1755.34 1862.45,1756.18 1862.41,1757.03 1862.35,1757.86 1862.27,1758.7 1862.18,1759.52 1862.07,1760.35 1861.94,1761.16 1861.8,1761.97 1861.64,1762.78 1861.46,1763.58 1861.27,1764.38 1861.07,1765.16 1860.85,1765.95 1860.61,1766.72 1860.36,1767.49 724.482,631.609 724.732,630.84 724.968,630.064 725.188,629.282 725.393,628.493 725.584,627.7 725.757,626.899 725.916,626.092 726.058,625.281 726.185,624.463 726.295,623.641 726.388,622.813 726.465,621.981 726.525,621.143 726.569,620.302 726.595,619.456 726.603,618.605 726.55,616.51 726.393,614.443 726.134,612.406 725.776,610.401 725.321,608.432 724.773,606.5 724.133,604.609 723.404,602.761 722.588,600.957 721.69,599.202 720.71,597.498 719.651,595.847 718.516,594.251 717.308,592.713 716.029,591.235 "/>
     <polygon id="_389847680" class="fil1" points="724.482,631.609 1860.36,1767.49 1879,1796.19 743.119,660.309 "/>
     <polygon id="_389847440" class="fil1" points="972.463,561.566 2108.34,1697.45 2057.71,1697.45 921.826,561.566 "/>
     <polygon id="_389847344" class="fil1" points="921.826,561.566 2057.71,1697.45 2056.51,1697.38 2055.33,1697.2 2054.17,1696.89 2053.03,1696.46 2051.9,1695.91 2050.8,1695.26 2049.72,1694.49 2048.66,1693.61 2047.64,1692.64 911.754,556.756 912.783,557.732 913.837,558.606 914.917,559.373 916.02,560.031 917.144,560.575 918.288,561.004 919.451,561.315 920.631,561.502 "/>
     <polygon id="_389847872" class="fil1" points="1528.52,1079.48 2664.4,2215.36 2664.24,2228.38 2663.75,2241.32 2662.93,2254.18 2661.8,2266.94 2660.35,2279.61 2658.59,2292.19 2656.52,2304.67 2654.15,2317.04 2651.48,2329.3 2648.52,2341.45 2645.27,2353.48 2641.72,2365.39 2637.9,2377.17 2633.79,2388.83 2629.41,2400.35 2624.76,2411.74 2619.84,2422.99 2614.65,2434.09 2609.21,2445.04 2603.51,2455.84 2597.56,2466.49 2591.36,2476.97 2584.92,2487.29 2578.24,2497.44 2571.32,2507.42 2564.17,2517.22 2556.8,2526.84 2549.19,2536.28 2541.37,2545.53 2533.34,2554.59 2525.09,2563.45 2516.63,2572.11 1380.75,1436.23 1389.21,1427.57 1397.46,1418.7 1405.49,1409.65 1413.31,1400.4 1420.91,1390.96 1428.29,1381.34 1435.44,1371.54 1442.36,1361.56 1449.04,1351.41 1455.48,1341.09 1461.68,1330.6 1467.63,1319.96 1473.33,1309.16 1478.77,1298.2 1483.95,1287.1 1488.88,1275.86 1493.53,1264.47 1497.91,1252.95 1502.01,1241.29 1505.84,1229.5 1509.38,1217.59 1512.64,1205.56 1515.6,1193.41 1518.27,1181.15 1520.64,1168.78 1522.71,1156.31 1524.47,1143.73 1525.92,1131.06 1527.05,1118.29 1527.87,1105.44 1528.36,1092.5 "/>
    </g>
    <path id="_385687912" class="fil1" d="M921.826 463.999l204.347 0c12.8315,0 23.2347,21.8421 23.2347,48.7843 0,26.941 -10.4032,48.7831 -23.2347,48.7831l-50.6363 0 0 15.9862c84.3131,8.55473 162.491,37.8709 229.342,82.7564l18.6095 -28.6571c-1.38425,-4.09607 -2.13543,-8.48386 -2.13543,-13.0465 0,-22.4811 18.2244,-40.7055 40.7055,-40.7055 22.4799,0 40.7044,18.2244 40.7044,40.7055 0,22.4799 -18.2244,40.7044 -40.7044,40.7044 -0.429922,0 -0.859843,-0.00708662 -1.28622,-0.0200788l-18.5917 28.6276c13.448,10.9417 26.3221,22.5614 38.5689,34.8083 91.3005,91.3005 147.774,217.433 147.774,356.75 0,139.318 -56.4721,265.449 -147.774,356.751 -91.3016,91.3016 -217.433,147.774 -356.751,147.774 -139.317,0 -265.449,-56.4733 -356.75,-147.774 -91.3016,-91.3016 -147.774,-217.434 -147.774,-356.751 0,-139.317 56.4733,-265.449 147.774,-356.75 12.2469,-12.2469 25.1209,-23.8677 38.5701,-34.8095l-18.5917 -28.6276c-0.441733,0.0141732 -0.884646,0.0212599 -1.32992,0.0212599 -22.4799,0 -40.7044,-18.2244 -40.7044,-40.7044 0,-22.4811 18.2244,-40.7055 40.7044,-40.7055 22.4811,0 40.7055,18.2244 40.7055,40.7055 0,4.54725 -0.745276,8.91969 -2.12126,13.0039l18.6378 28.6996c66.8504,-44.8855 145.029,-74.2016 229.343,-82.7575l0 -15.9851 -50.6363 0c-12.8315,0 -23.2347,-21.8421 -23.2347,-48.7831 0,-26.9421 10.4032,-48.7843 23.2347,-48.7843z"/>
   </g>
  </g>
  <path class="fil2" d="M1024 0c565.538,0 1024,458.462 1024,1024 0,565.538 -458.462,1024 -1024,1024 -565.538,0 -1024,-458.462 -1024,-1024 0,-565.538 458.462,-1024 1024,-1024z"/>
  <path class="fil3" d="M1075.54 517.52c0,-12.8315 -23.0752,-23.2347 -51.5374,-23.2347 -28.4622,0 -51.5374,10.4032 -51.5374,23.2347l0 76.6312c0,12.8315 23.0752,23.2347 51.5374,23.2347 28.4622,0 51.5374,-10.4032 51.5374,-23.2347l0 -76.6312z"/>
  <path class="fil4" d="M921.826 463.999c-12.8315,0 -23.2347,21.8421 -23.2347,48.7843 0,26.941 10.4032,48.7831 23.2347,48.7831l204.347 0c12.8315,0 23.2347,-21.8421 23.2347,-48.7831 0,-26.9421 -10.4032,-48.7843 -23.2347,-48.7843l-204.347 0z"/>
  <path class="fil5" d="M1373.17 640.203c6.96615,-10.7268 3.92008,-25.0713 -6.8067,-32.0386 -10.7268,-6.96615 -25.0713,-3.92008 -32.0386,6.8067l-41.7355 64.2674c-6.96615,10.7268 -3.92008,25.0713 6.8067,32.0386 10.7268,6.96615 25.0713,3.92008 32.0386,-6.8067l41.7355 -64.2674z"/>
  <path class="fil5" d="M713.677 614.971c-6.96733,-10.7268 -21.3118,-13.774 -32.0374,-6.8067 -10.7268,6.96615 -13.774,21.3106 -6.8067,32.0374l41.7355 64.2674c6.96615,10.7268 21.3106,13.774 32.0374,6.8067 10.7268,-6.96733 13.774,-21.3118 6.8067,-32.0374l-41.7355 -64.2674z"/>
  <path class="fil6" d="M1024 574.952c139.317,0 265.449,56.4721 356.751,147.774 91.3005,91.3005 147.774,217.433 147.774,356.75 0,139.318 -56.4721,265.449 -147.774,356.751 -91.3016,91.3016 -217.433,147.774 -356.751,147.774 -139.317,0 -265.449,-56.4733 -356.75,-147.774 -91.3016,-91.3016 -147.774,-217.434 -147.774,-356.751 0,-139.317 56.4733,-265.449 147.774,-356.75 91.3005,-91.3005 217.433,-147.774 356.75,-147.774z"/>
  <path class="fil7" d="M1024 653.356c117.667,0 224.199,47.6965 301.311,124.81 77.1131,77.1119 124.81,183.643 124.81,301.31 0,117.669 -47.6965,224.199 -124.808,301.312 -77.1131,77.1119 -183.644,124.808 -301.312,124.808 -117.667,0 -224.198,-47.6965 -301.31,-124.81 -77.1131,-77.1119 -124.81,-183.644 -124.81,-301.311 0,-117.667 47.6965,-224.198 124.81,-301.31 77.1119,-77.1131 183.643,-124.81 301.31,-124.81z"/>
  <circle class="fil6" cx="685.898" cy="618.605" r="40.7047"/>
  <circle class="fil6" cx="1362.06" cy="618.605" r="40.7047"/>
  <path class="fil6" d="M1024 697.96c210.705,0 381.515,170.81 381.515,381.515 0,210.705 -170.81,381.515 -381.515,381.515 -210.705,0 -381.515,-170.81 -381.515,-381.515 0,-210.705 170.81,-381.515 381.515,-381.515zm0 61.3796c176.806,0 320.137,143.329 320.137,320.136 0,176.808 -143.33,320.137 -320.137,320.137 -176.808,0 -320.137,-143.329 -320.137,-320.137 0,-176.806 143.329,-320.136 320.137,-320.136z"/>
  <path class="fil8" d="M644.299 1071.18c-4.5815,0 -8.29489,3.71339 -8.29489,8.29371 0,4.58032 3.71339,8.29371 8.29489,8.29371l50.9717 0c4.58032,0 8.29371,-3.71339 8.29371,-8.29371 0,-4.58032 -3.71339,-8.29371 -8.29371,-8.29371l-50.9717 0z"/>
  <path class="fil8" d="M1032.29 699.774c0,-4.58032 -3.71457,-8.29489 -8.29489,-8.29489 -4.58032,0 -8.29371,3.71457 -8.29371,8.29489l0 50.9717c0,4.58032 3.71339,8.29371 8.29371,8.29371 4.58032,0 8.29489,-3.71339 8.29489,-8.29371l0 -50.9717z"/>
  <path class="fil8" d="M1352.73 1071.18c-4.5815,0 -8.29489,3.71339 -8.29489,8.29371 0,4.58032 3.71339,8.29371 8.29489,8.29371l50.9717 0c4.58032,0 8.29371,-3.71339 8.29371,-8.29371 0,-4.58032 -3.71339,-8.29371 -8.29371,-8.29371l-50.9717 0z"/>
  <path class="fil8" d="M1032.29 1408.2c0,-4.58032 -3.71457,-8.29489 -8.29489,-8.29489 -4.58032,0 -8.29371,3.71457 -8.29371,8.29489l0 50.9717c0,4.58032 3.71339,8.29371 8.29371,8.29371 4.58032,0 8.29489,-3.71339 8.29489,-8.29371l0 -50.9717z"/>
  <path class="fil8" d="M761.375 805.121c-3.23859,-3.23859 -8.48977,-3.23859 -11.7295,0 -3.23859,3.23859 -3.23859,8.49095 0,11.7295l36.0425 36.0425c3.23977,3.23859 8.49095,3.23859 11.7295,0 3.23977,-3.23859 3.23977,-8.49095 0,-11.7295l-36.0425 -36.0425z"/>
  <path class="fil8" d="M761.375 1353.83c-3.23859,3.23859 -8.48977,3.23859 -11.7295,0 -3.23859,-3.23977 -3.23859,-8.49095 0,-11.7295l36.0425 -36.0425c3.23977,-3.23977 8.49095,-3.23977 11.7295,0 3.23977,3.23859 3.23977,8.48977 0,11.7295l-36.0425 36.0425z"/>
  <path class="fil8" d="M1262.31 1306.06c-3.23859,-3.23977 -8.49095,-3.23977 -11.7295,0 -3.23977,3.23859 -3.23977,8.48977 0,11.7295l36.0425 36.0425c3.23859,3.23859 8.49095,3.23859 11.7295,0 3.23859,-3.23977 3.23859,-8.49095 0,-11.7295l-36.0425 -36.0425z"/>
  <path class="fil8" d="M1262.31 852.894c-3.23859,3.23859 -8.49095,3.23859 -11.7295,0 -3.23977,-3.23859 -3.23977,-8.49095 0,-11.7295l36.0425 -36.0425c3.23859,-3.23859 8.49095,-3.23859 11.7295,0 3.23859,3.23859 3.23859,8.49095 0,11.7295l-36.0425 36.0425z"/>
  <path class="fil9" d="M1041.15 1072.62l202.468 212.929c52.2378,-55.6678 81.5457,-129.314 81.5457,-206.079 0,-160.546 -125.612,-291.749 -283.933,-300.682l-0.0814961 293.831z"/>
  <path class="fil10" d="M1070.42 1111.04l173.762 199.778 -191.959 -182.362 -22.8284 -23.8524 -0.190158 -0.287008c-8.40237,2.06221 -17.6433,-0.295276 -24.0543,-6.99449 -6.39449,-6.6815 -8.3504,-15.9851 -5.95158,-24.2705l-5.29725 -5.53465c-4.80827,-5.02441 -4.63347,-12.998 0.390945,-17.8063 5.02441,-4.80945 12.998,-4.63465 17.8075,0.390945l5.34922 5.59016c8.34449,-1.97126 17.4815,0.402756 23.8382,7.04528 6.40512,6.69213 8.35867,16.0158 5.93977,24.313l0.364961 0.137008 22.8284 23.8536z"/>
  <path class="fil11" d="M1011.34 1025.68l12.5941 -264.471 12.5941 264.471 0 33.0166 -0.0602363 0.337796c7.49528,4.32048 12.5421,12.4134 12.5421,21.6862 0,9.24804 -5.01969,17.3221 -12.4819,21.6496l0 7.66064c0,6.95434 -5.63859,12.5941 -12.5941,12.5941 -6.95434,0 -12.5941,-5.63977 -12.5941,-12.5941l0 -7.73859c-7.39016,-4.34528 -12.3508,-12.378 -12.3508,-21.5717 0,-9.26339 5.03504,-17.3504 12.5185,-21.6721l-0.167717 -0.350788 0 -33.0177z"/>
  <circle class="fil12" cx="1024" cy="1080.72" r="14.0394"/>
  <circle class="fil13" cx="1024" cy="1080.72" r="4.96748"/>
  <path class="fil14" d="M926.473 556.575c-2.73662,-12.2764 -4.35355,-27.4122 -4.35355,-43.7918 0,-16.3807 1.61693,-31.5166 4.35355,-43.7918 2.73662,12.2752 4.35355,27.411 4.35355,43.7918 0,16.3795 -1.61693,31.5154 -4.35355,43.7918z"/>
  <path class="fil14" d="M942.727 556.575c-2.73662,-12.2764 -4.35355,-27.4122 -4.35355,-43.7918 0,-16.3807 1.61693,-31.5166 4.35355,-43.7918 2.73662,12.2752 4.35355,27.411 4.35355,43.7918 0,16.3795 -1.61693,31.5154 -4.35355,43.7918z"/>
  <path class="fil14" d="M958.981 556.575c-2.73662,-12.2764 -4.35237,-27.4122 -4.35237,-43.7918 0,-16.3807 1.61575,-31.5166 4.35237,-43.7918 2.73662,12.2752 4.35355,27.411 4.35355,43.7918 0,16.3795 -1.61693,31.5154 -4.35355,43.7918z"/>
  <path class="fil14" d="M975.237 556.575c-2.73662,-12.2764 -4.35355,-27.4122 -4.35355,-43.7918 0,-16.3807 1.61693,-31.5166 4.35355,-43.7918 2.73544,12.2752 4.35237,27.411 4.35237,43.7918 0,16.3795 -1.61693,31.5154 -4.35237,43.7918z"/>
  <path class="fil14" d="M991.491 556.575c-2.73662,-12.2764 -4.35355,-27.4122 -4.35355,-43.7918 0,-16.3807 1.61693,-31.5166 4.35355,-43.7918 2.73662,12.2752 4.35237,27.411 4.35237,43.7918 0,16.3795 -1.61575,31.5154 -4.35237,43.7918z"/>
  <path class="fil14" d="M1007.75 556.575c-2.73662,-12.2764 -4.35355,-27.4122 -4.35355,-43.7918 0,-16.3807 1.61693,-31.5166 4.35355,-43.7918 2.73662,12.2752 4.35355,27.411 4.35355,43.7918 0,16.3795 -1.61693,31.5154 -4.35355,43.7918z"/>
  <path class="fil14" d="M1024 556.575c-2.73662,-12.2764 -4.35355,-27.4122 -4.35355,-43.7918 0,-16.3807 1.61693,-31.5166 4.35355,-43.7918 2.73662,12.2752 4.35355,27.411 4.35355,43.7918 0,16.3795 -1.61693,31.5154 -4.35355,43.7918z"/>
  <path class="fil14" d="M1040.25 556.575c-2.73662,-12.2764 -4.35355,-27.4122 -4.35355,-43.7918 0,-16.3807 1.61693,-31.5166 4.35355,-43.7918 2.73662,12.2752 4.35355,27.411 4.35355,43.7918 0,16.3795 -1.61693,31.5154 -4.35355,43.7918z"/>
  <path class="fil14" d="M1056.51 556.575c-2.73662,-12.2764 -4.35237,-27.4122 -4.35237,-43.7918 0,-16.3807 1.61575,-31.5166 4.35237,-43.7918 2.73662,12.2752 4.35355,27.411 4.35355,43.7918 0,16.3795 -1.61693,31.5154 -4.35355,43.7918z"/>
  <path class="fil14" d="M1072.76 556.575c-2.73544,-12.2764 -4.35237,-27.4122 -4.35237,-43.7918 0,-16.3807 1.61693,-31.5166 4.35237,-43.7918 2.73662,12.2752 4.35355,27.411 4.35355,43.7918 0,16.3795 -1.61693,31.5154 -4.35355,43.7918z"/>
  <path class="fil14" d="M1089.02 556.575c-2.73662,-12.2764 -4.35355,-27.4122 -4.35355,-43.7918 0,-16.3807 1.61693,-31.5166 4.35355,-43.7918 2.73662,12.2752 4.35237,27.411 4.35237,43.7918 0,16.3795 -1.61575,31.5154 -4.35237,43.7918z"/>
  <path class="fil14" d="M1105.27 556.575c-2.73662,-12.2764 -4.35355,-27.4122 -4.35355,-43.7918 0,-16.3807 1.61693,-31.5166 4.35355,-43.7918 2.73662,12.2752 4.35355,27.411 4.35355,43.7918 0,16.3795 -1.61693,31.5154 -4.35355,43.7918z"/>
  <path class="fil14" d="M1121.53 556.575c-2.73662,-12.2764 -4.35355,-27.4122 -4.35355,-43.7918 0,-16.3807 1.61693,-31.5166 4.35355,-43.7918 2.73662,12.2752 4.35355,27.411 4.35355,43.7918 0,16.3795 -1.61693,31.5154 -4.35355,43.7918z"/>
 </g>
</svg>
