<?xml version="1.0" encoding="iso-8859-1"?>
<!-- Generator: Adobe Illustrator 19.0.0, SVG Export Plug-In . SVG Version: 6.00 Build 0)  -->
<svg version="1.1" id="Layer_1" xmlns="http://www.w3.org/2000/svg" xmlns:xlink="http://www.w3.org/1999/xlink" x="0px" y="0px"
	 viewBox="0 0 512 512" style="enable-background:new 0 0 512 512;" xml:space="preserve">
<path style="fill:#E4EAF6;" d="M52.567,134.504l40.981-40.981V50.767c0-18.891,15.314-34.205,34.205-34.205h342.046
	c18.891,0,34.205,15.314,34.205,34.205v145.37c0,18.891-15.314,34.205-34.205,34.205H127.753c-18.891,0-34.205-15.314-34.205-34.205
	v-51.307H56.844C51.455,144.829,48.757,138.314,52.567,134.504z"/>
<path style="fill:#F0C087;" d="M358.589,359.988c-0.727,13.872-13.178,24.274-27.069,24.274H230.008
	c28.282,19.917,48.781,48.749,53.994,79.737c2.174,12.921-4.683,26.239-17.174,30.193c-15.534,4.916-31.028-5.308-33.271-20.724
	c-3.718-25.512-32.651-57.208-72.92-63.908c-6.225-1.036-12.185-4.094-15.79-9.274c-17.102-24.576-51.307-41.678-51.307-41.678
	V187.585h32.195c12.718,0,25.415-1.051,37.961-3.141l13.61-2.268c12.546-2.091,25.242-3.141,37.96-3.141h90.602
	c13.891,0,26.343,10.401,27.069,24.275c0.775,14.793-10.993,27.032-25.617,27.032h7.1c13.891,0,26.343,10.401,27.069,24.275
	c0.775,14.793-10.993,27.032-25.617,27.032h7.1c13.891,0,26.343,10.401,27.069,24.275c0.775,14.793-10.993,27.032-25.617,27.032
	h8.551C347.597,332.956,359.363,345.193,358.589,359.988z"/>
<path style="fill:#FF6464;" d="M83.753,179.034h-65.94c-5.404,0-9.786,4.381-9.786,9.786v168.555c0,5.404,4.381,9.786,9.786,9.786
	h65.94c5.404,0,9.786-4.381,9.786-9.786v-32.975V188.82C93.539,183.415,89.159,179.034,83.753,179.034z"/>
<path style="fill:#E6AF78;" d="M117.055,187.586H93.539v171.023c0,0,10.926,5.465,23.516,14.652V187.586z"/>
<path d="M50.772,308.388c-8.841,0-16.033,7.193-16.033,16.033c0,8.841,7.193,16.033,16.033,16.033s16.033-7.193,16.033-16.033
	C66.806,315.581,59.613,308.388,50.772,308.388z"/>
<path d="M461.228,51.31H204.693c-4.427,0-8.017,3.589-8.017,8.017s3.589,8.017,8.017,8.017h256.534c4.427,0,8.017-3.589,8.017-8.017
	S465.655,51.31,461.228,51.31z"/>
<path d="M136.284,67.343h34.205c4.427,0,8.017-3.589,8.017-8.017s-3.589-8.017-8.017-8.017h-34.205
	c-4.427,0-8.017,3.589-8.017,8.017S131.857,67.343,136.284,67.343z"/>
<path d="M461.228,136.821H324.409c-4.427,0-8.017,3.589-8.017,8.017s3.589,8.017,8.017,8.017h136.818
	c4.427,0,8.017-3.589,8.017-8.017S465.655,136.821,461.228,136.821z"/>
<path d="M290.206,136.821H136.284c-4.427,0-8.017,3.589-8.017,8.017s3.589,8.017,8.017,8.017h153.922
	c4.427,0,8.017-3.589,8.017-8.017S294.634,136.821,290.206,136.821z"/>
<path d="M461.228,94.065h-34.205c-4.427,0-8.017,3.589-8.017,8.017s3.589,8.017,8.017,8.017h34.205c4.427,0,8.017-3.589,8.017-8.017
	S465.655,94.065,461.228,94.065z"/>
<path d="M400.831,102.082c0-4.427-3.589-8.017-8.017-8.017h-256.53c-4.427,0-8.017,3.589-8.017,8.017s3.589,8.017,8.017,8.017
	h256.53C397.241,110.099,400.831,106.51,400.831,102.082z"/>
<path d="M469.779,8.554H127.733c-23.281,0-42.221,18.941-42.221,42.221v39.444l-38.633,38.633
	c-4.037,4.037-5.233,10.054-3.05,15.328c2.184,5.274,7.286,8.683,12.995,8.683h28.688v18.251c-0.583-0.058-1.172-0.09-1.769-0.09
	h-65.94C7.986,171.026,0,179.012,0,188.828v168.554c0,9.817,7.986,17.802,17.802,17.802h65.94c5.114,0,9.717-2.179,12.968-5.645
	c10.395,6.097,30.257,19.115,41.544,35.334c4.619,6.636,12.096,11.112,21.054,12.602c28.693,4.775,62.183,28.88,66.302,57.155
	c1.427,9.803,7.058,18.442,15.45,23.701c5.393,3.381,11.572,5.115,17.834,5.115c3.46,0,6.947-0.53,10.338-1.603
	c15.833-5.01,25.575-21.847,22.662-39.165c-4.298-25.547-18.352-50.336-39.477-70.391h79.09c18.732,0,34.138-13.999,35.075-31.871
	c0.49-9.339-2.777-18.209-9.197-24.974c-2.248-2.369-4.82-4.378-7.614-5.986c5.799-6.623,8.724-15.071,8.26-23.944
	c-0.607-11.586-7.295-21.545-17.029-27.117c5.944-6.658,8.948-15.207,8.477-24.19c-0.304-5.803-2.135-11.199-5.109-15.839h125.408
	c23.28,0,42.221-18.941,42.221-42.221V50.775C512,27.495,493.059,8.554,469.779,8.554z M85.511,357.383
	c0,0.976-0.793,1.769-1.769,1.769h-65.94c-0.976,0-1.769-0.793-1.769-1.769V188.829c0-0.976,0.793-1.769,1.769-1.769h65.94
	c0.976,0,1.769,0.793,1.769,1.769V357.383z M333.47,255.043c0.257,4.903-1.454,9.555-4.815,13.097
	c-3.365,3.546-7.91,5.499-12.796,5.499c-4.427,0-8.017,3.589-8.017,8.017c0,4.427,3.589,8.017,8.017,8.017h7.1
	c10.029,0,18.582,7.481,19.063,16.677c0.257,4.903-1.454,9.555-4.815,13.097c-3.365,3.546-7.91,5.499-12.796,5.499
	c-4.427,0-8.017,3.589-8.017,8.017c0,4.427,3.589,8.017,8.017,8.017h8.551c4.886,0,9.431,1.953,12.796,5.499
	c3.363,3.542,5.073,8.195,4.815,13.098c-0.482,9.196-9.033,16.677-19.063,16.677H229.997c-3.495,0-6.588,2.264-7.643,5.596
	c-1.055,3.332,0.169,6.963,3.027,8.974c27.517,19.378,45.998,46.538,50.705,74.513c1.596,9.484-3.429,18.606-11.687,21.22
	c-5.116,1.618-10.378,0.975-14.821-1.81c-4.398-2.758-7.351-7.286-8.099-12.426c-2.151-14.757-11.335-30.685-25.2-43.699
	c-14.965-14.046-34.262-23.623-54.338-26.963c-4.591-0.763-8.427-2.931-10.524-5.945c-14.48-20.805-39.679-36.218-49.871-41.897
	V195.61h24.178c13.121,0,26.336-1.093,39.279-3.251l13.61-2.268c12.073-2.012,24.402-3.032,36.642-3.032h90.602
	c10.029,0,18.582,7.481,19.063,16.677c0.257,4.903-1.454,9.555-4.815,13.097c-3.365,3.546-7.91,5.499-12.796,5.499
	c-4.427,0-8.017,3.589-8.017,8.017s3.589,8.017,8.017,8.017h7.1C324.436,238.366,332.988,245.847,333.47,255.043z M495.967,196.145
	c0,14.44-11.748,26.188-26.188,26.188H335.995c3.566-5.766,5.3-12.468,4.935-19.435c-0.131-2.516-0.56-4.953-1.235-7.288h121.532
	c4.427,0,8.017-3.589,8.017-8.017s-3.589-8.017-8.017-8.017H329.279c-6.225-5.324-14.439-8.551-23.424-8.551h-90.602
	c-13.121,0-26.336,1.093-39.278,3.251l-13.61,2.268c-12.073,2.012-24.402,3.032-36.643,3.032h-24.178v-34.73
	c0-4.427-3.589-8.017-8.017-8.017H61.575l37.622-37.622c1.504-1.502,2.348-3.541,2.348-5.667V50.775
	c0-14.44,11.748-26.188,26.188-26.188h342.046c14.44,0,26.188,11.748,26.188,26.188V196.145z"/>
<g>
</g>
<g>
</g>
<g>
</g>
<g>
</g>
<g>
</g>
<g>
</g>
<g>
</g>
<g>
</g>
<g>
</g>
<g>
</g>
<g>
</g>
<g>
</g>
<g>
</g>
<g>
</g>
<g>
</g>
</svg>
